<?xml version="1.0" standalone="no"?>
<!DOCTYPE svg PUBLIC "-//W3C//DTD SVG 20010904//EN"
 "http://www.w3.org/TR/2001/REC-SVG-20010904/DTD/svg10.dtd">
<svg version="1.0" xmlns="http://www.w3.org/2000/svg"
 width="55pt" height="55pt" viewBox="0 0 256.000000 256.000000"
 preserveAspectRatio="xMidYMid meet">
<metadata>
Created by potrace 1.15, written by Peter Selinger 2001-2017
</metadata>
<g transform="translate(0.000000,256.000000) scale(0.100000,-0.100000)"
fill="rgb(228, 59, 44)" stroke="none">
<path d="M194 2348 c-60 -19 -127 -80 -161 -147 l-33 -63 0 -367 0 -368 31
-61 c32 -65 66 -99 133 -135 38 -20 58 -22 281 -27 266 -6 275 -8 316 -73 17
-28 20 -45 17 -128 -3 -84 -8 -104 -36 -161 -39 -79 -111 -149 -190 -186 -47
-22 -77 -27 -172 -32 -129 -6 -155 -16 -176 -65 -20 -49 -19 -236 1 -280 26
-53 46 -58 206 -53 124 4 155 8 224 32 128 43 220 101 315 196 95 95 152 186
197 315 l28 80 3 649 c3 746 6 713 -82 801 -84 84 -90 85 -510 84 -212 -1
-374 -5 -392 -11z"/>
<path d="M1544 2336 c-62 -29 -120 -86 -148 -146 -20 -43 -21 -63 -24 -398 -3
-411 -1 -427 74 -511 83 -93 93 -95 371 -101 224 -5 244 -6 269 -26 59 -44 69
-68 67 -162 -2 -120 -28 -185 -103 -266 -89 -94 -145 -118 -296 -125 -178 -9
-183 -15 -184 -204 l0 -139 29 -29 c29 -29 30 -29 154 -29 92 0 144 5 203 20
226 58 411 206 513 410 87 173 86 165 86 875 0 700 3 675 -79 763 -82 89 -70
87 -501 90 l-380 2 -51 -24z"/>
</g>
</svg>
