<svg id="SvgjsSvg1024" width="288" height="288" xmlns="http://www.w3.org/2000/svg" version="1.1" xmlns:xlink="http://www.w3.org/1999/xlink" xmlns:svgjs="http://svgjs.com/svgjs"><defs id="SvgjsDefs1025"></defs><g id="SvgjsG1026"><svg xmlns="http://www.w3.org/2000/svg" enable-background="new 0 0 491.768 491.768" viewBox="0 0 491.768 491.768" width="288" height="288"><path d="M174.048 136.543l39.925-83.12 18.234-37.966-2.938-6.131C226.54 3.628 220.778 0 214.453 0H98.137c-5.651 0-10.899 2.906-13.918 7.689-3.001 4.783-3.338 10.772-.898 15.859l72.508 150.957L174.048 136.543zM407.548 7.689C404.53 2.906 399.281 0 393.63 0h-116.3c-6.323 0-12.088 3.628-14.815 9.326l-89.814 187.012c-.065.145-.081.289-.146.433-.143.322-.209.675-.337 1.013-.577 1.559-.913 3.211-.994 4.959-.017.242-.145.45-.145.709v8.474c22.329-11.687 47.676-18.397 74.579-18.397 26.922 0 52.252 6.711 74.597 18.414v-4.751l88.192-183.642C410.887 18.461 410.549 12.473 407.548 7.689zM245.658 218.186c-75.559 0-136.8 61.24-136.8 136.799 0 75.543 61.241 136.783 136.8 136.783 75.543 0 136.785-61.24 136.785-136.783C382.444 279.426 321.201 218.186 245.658 218.186zM326.966 331.1l-36.52 35.62c-1.14 1.122-1.671 2.729-1.397 4.302l8.622 50.293c.303 1.813-.452 3.659-1.944 4.75-1.492 1.092-3.483 1.221-5.105.369l-45.17-23.738c-1.412-.742-3.115-.742-4.529 0l-45.17 23.738c-1.622.852-3.613.723-5.105-.369-1.492-1.091-2.246-2.938-1.941-4.75l8.621-50.293c.271-1.572-.259-3.18-1.397-4.302l-36.52-35.62c-1.331-1.302-1.797-3.227-1.236-4.977.58-1.768 2.104-3.05 3.918-3.307l50.516-7.337c1.574-.225 2.939-1.219 3.645-2.664l22.587-45.749c.819-1.654 2.505-2.715 4.35-2.715 1.846 0 3.529 1.061 4.349 2.715l22.587 45.749c.705 1.445 2.069 2.439 3.645 2.664l50.516 7.337c1.813.257 3.34 1.539 3.918 3.307C328.764 327.873 328.296 329.798 326.966 331.1z" fill="#231c62" class="color000 svgShape"></path></svg></g></svg>