<svg xmlns="http://www.w3.org/2000/svg" width="59" height="59" viewBox="0 0 59 59"><defs><style>.a{fill:#ff4747;}.b{fill:#fff;}</style></defs><g transform="translate(-839 -3608)"><circle class="a" cx="29.5" cy="29.5" r="29.5" transform="translate(839 3608)"/><g transform="translate(846.973 3616.389)"><path class="b" d="M41,23.964H39.965l.049-1.973H39.96l.053-.87-.051.035c.018-.322.051-.64.051-.964A18.57,18.57,0,0,0,2.88,19.638l-.028-.086.009.471c0,.056-.008.112-.008.17,0,.119.01.236.018.355l.006.341H2.853l.038.88.041,2.2H1.884A1.93,1.93,0,0,0,.027,25.959v7.1a1.928,1.928,0,0,0,1.857,1.995h1.25L3.2,38.771H8.117V39.78a1.846,1.846,0,0,0,1.859,1.831h3.947a1.846,1.846,0,0,0,1.859-1.831V22.927A1.846,1.846,0,0,0,13.923,21.1H9.976a1.847,1.847,0,0,0-1.859,1.831v1.01H6.727l-.049-1.795-.038-.57.023,0c-.045-.456-.094-.909-.094-1.377a14.864,14.864,0,1,1,29.727,0c0,.1-.016.191-.019.289l.012,0-.107,3.452h-1.47v-1.01a1.846,1.846,0,0,0-1.858-1.831H28.906a1.847,1.847,0,0,0-1.859,1.831V39.778a1.846,1.846,0,0,0,1.859,1.831h3.947a1.845,1.845,0,0,0,1.858-1.831V38.771h4.928v-.986l.064-2.729H41a1.928,1.928,0,0,0,1.856-1.995v-7.1A1.929,1.929,0,0,0,41,23.964Z"/></g></g></svg>