<svg xmlns="http://www.w3.org/2000/svg" width="59" height="59" viewBox="0 0 59 59"><defs><style>.a{fill:#ff4747;}.b{fill:#fff;}</style></defs><g transform="translate(-839 -3524)"><circle class="a" cx="29.5" cy="29.5" r="29.5" transform="translate(839 3524)"/><g transform="translate(847.628 3532.917)"><g transform="translate(5.372 0.083)"><path class="b" d="M33.223,17.96v2.789a11.89,11.89,0,0,1-11.895,11.9h-.246a11.9,11.9,0,0,1-11.895-11.9V17.96H5.372v3.408a15.668,15.668,0,0,0,13.8,15.553v3.221H15.283v3.28H27.3v-3.28H23.241V36.921a15.66,15.66,0,0,0,13.8-15.553V17.96H33.223Z" transform="translate(-5.372 -2.765)"/><path class="b" d="M15.993,18.46h.337v3.13H14.217a8.931,8.931,0,0,0,8.093,5.177H22.5a8.932,8.932,0,0,0,8.091-5.177H28.14V18.46h3.247c.015-.218.065-.429.065-.651V14.988h-3v-3.13h3V9.037c0-.223-.05-.431-.065-.651h-2.91V5.257h2.11A8.936,8.936,0,0,0,22.5.083H22.31a8.936,8.936,0,0,0-8.094,5.174H16.33v3.13H13.418c-.016.22-.065.428-.065.651v2.82h2.956v3.13H13.353V17.81c0,.222.05.433.065.651h2.575Z" transform="translate(-6.569 -0.083)"/></g></g></g></svg>