<svg xmlns="http://www.w3.org/2000/svg" width="59" height="59" viewBox="0 0 59 59"><defs><style>.a{fill:#ff4747;}.b{fill:none;}.c{fill:#fff;}</style></defs><g transform="translate(-839 -3436)"><circle class="a" cx="29.5" cy="29.5" r="29.5" transform="translate(839 3436)"/><g transform="translate(848 3445)"><rect class="b" width="42" height="42"/><path class="c" d="M36.509,2.678V32s-.1,5.023-5.851,5.023c-6.291,0-6.715-4.082-6.715-5.026,0-2.019.789-4.22,6.7-4.22,2.722,0,3.351-.7,3.351-2.482V11.239c0-1.1-.067-1.5-1.293-1.225-2.109.477-15.881,3.462-16.43,3.594s-.707.457-.707,1.426V36.187c0,1.887-1.459,5.026-6.7,5.026S3,37.864,3,36.187c0-2.491,1.885-4.1,5.87-4.1,3.712,0,4.183-1.046,4.183-2.6V6.867A1.375,1.375,0,0,1,14.2,5.339c1.366-.3,20.759-4.3,20.759-4.3S36.509.686,36.509,2.678Z" transform="translate(-0.487 -0.165)"/></g></g></svg>