<svg xmlns="http://www.w3.org/2000/svg" width="59" height="59" viewBox="0 0 59 59"><defs><style>.a{fill:#ff4747;stroke:#ff4747;}.b{fill:#fff;}.c{fill:none;}.d{stroke:none;}</style></defs><g transform="translate(-839 -3269)"><g class="a" transform="translate(839 3269)"><circle class="d" cx="29.5" cy="29.5" r="29.5"/><circle class="c" cx="29.5" cy="29.5" r="29"/></g><g transform="translate(826.51 3265.09)"><path class="b" d="M56.671,20.363c-.539-3.5-3.887-6.877-8.237-7.387a10.829,10.829,0,0,0-5.159.714V42.771a15.034,15.034,0,0,0-5.842-1.118c-5.491,0-9.943,2.607-9.943,5.823S31.941,53.3,37.433,53.3s9.943-2.607,9.943-5.823v-25.4a2.485,2.485,0,0,1,1.44-.644c1.83-.132,3.979,2.165,5.237,5.792C54.622,26.666,57.228,23.979,56.671,20.363Z"/><g transform="translate(31.059 13.402)"><path class="b" d="M49.287,27.543a2.868,2.868,0,0,0-.645.151,2.931,2.931,0,0,0-.8.492v25.4c0,3.216-4.451,5.823-9.943,5.823a15.518,15.518,0,0,1-5.044-.811,14.684,14.684,0,0,0,6.374,1.356c5.491,0,9.943-2.607,9.943-5.823v-25.4a3.159,3.159,0,0,1,1.44-.644,3.574,3.574,0,0,1,1.48.05,5.163,5.163,0,0,0-.986-.4A4.347,4.347,0,0,0,49.287,27.543Z" transform="translate(-32.859 -20.054)"/><path class="b" d="M68.193,20.775a9.255,9.255,0,0,0-6.342-6.961,9.067,9.067,0,0,1,5.013,6.416,7.805,7.805,0,0,1-1.849,6.01c.2.44.389.906.56,1.4C66.144,27.078,68.75,24.391,68.193,20.775Z" transform="translate(-42.581 -13.814)"/></g><path class="c" d="M56.671,20.363c-.539-3.5-3.887-6.877-8.237-7.387a10.829,10.829,0,0,0-5.159.714V42.771a15.034,15.034,0,0,0-5.842-1.118c-5.491,0-9.943,2.607-9.943,5.823S31.941,53.3,37.433,53.3s9.943-2.607,9.943-5.823v-25.4a2.485,2.485,0,0,1,1.44-.644c1.83-.132,3.979,2.165,5.237,5.792C54.622,26.666,57.228,23.979,56.671,20.363Z"/></g></g></svg>